<svg width="21" height="21" viewBox="0 0 21 21" fill="none" xmlns="http://www.w3.org/2000/svg">
<g clip-path="url(#clip0_170_74)">
<path d="M11.1752 15.9476L20.7204 6.40215C21.0932 6.02944 21.0932 5.42502 20.7204 5.05224C20.3476 4.67952 19.7432 4.67952 19.3704 5.0523L10.5002 13.9228L1.62945 5.05223C1.25666 4.67952 0.652311 4.67952 0.27953 5.0523C0.0931377 5.23863 -2.48266e-05 5.48293 -2.48373e-05 5.72723C-2.48479e-05 5.97153 0.0931396 6.21583 0.279594 6.40222L9.8253 15.9476C10.0043 16.1267 10.2471 16.2272 10.5002 16.2272C10.7534 16.2272 10.9962 16.1267 11.1752 15.9476Z" fill="white"/>
</g>
<defs>
<clipPath id="clip0_170_74">
<rect width="21" height="21" fill="white" transform="translate(21) rotate(90)"/>
</clipPath>
</defs>
</svg>
