<svg width="85" height="85" viewBox="0 0 85 85" fill="none" xmlns="http://www.w3.org/2000/svg">
<circle cx="42.5" cy="42.5" r="42" fill="#0B0B3E" stroke="#6445FB"/>
<path d="M66.9611 42.7756C66.9611 40.0512 64.8684 37.9585 62.144 37.9585H55.9055V41.749C55.9055 44.5129 54.7999 47.2373 52.7468 49.2115C50.7331 51.1462 48.1666 52.1728 45.4027 52.1728H34.584V56.1213C34.584 58.8457 36.8346 61.2542 39.559 61.2542H54.3261L57.0505 65.9529C57.6823 67.0975 58.8668 67.6507 60.1694 67.6507C62.1041 67.6507 63.8414 66.1108 63.8414 64.1761V60.8985C65.4208 60.3461 67.0002 58.411 67.0002 56.1209V42.7752H66.9611V42.7756Z" fill="#6445FB"/>
<path d="M21.1587 46.4867V49.8034C21.1587 51.7381 22.8566 53.2385 24.8308 53.2385C26.0943 53.2385 27.3578 52.5673 27.9895 51.4218L30.635 46.6442H34.5834H45.4021C48.1261 46.6442 50.3771 44.4726 50.3771 41.7482V37.9577V28.4025C50.3771 25.6781 48.1265 23.3485 45.4021 23.3485H45.2442H22.8171C20.0927 23.3493 18 25.6789 18 28.4033V41.749C18 43.9996 19.5794 45.9343 21.1587 46.4867Z" fill="#6445FB"/>
</svg>
