<svg width="42" height="42" viewBox="0 0 42 42" fill="none" xmlns="http://www.w3.org/2000/svg">
<path d="M14.9441 39.3423C15.5414 39.0853 15.9597 38.4914 15.9597 37.8001V33.2641C15.9597 33.0986 15.9731 32.9264 15.9941 32.7517C15.9824 32.755 15.9714 32.7575 15.9597 32.7601C15.9597 32.7601 13.4397 32.7601 12.9357 32.7601C11.6757 32.7601 10.5837 32.2561 10.0797 31.2481C9.49169 30.1561 9.23969 28.3081 7.72769 27.3001C7.47569 27.1321 7.64369 26.8801 8.14769 26.8801C8.65169 26.9641 9.74369 27.6361 10.4157 28.5601C11.1717 29.4841 11.9277 30.2401 13.2717 30.2401C15.3608 30.2401 16.4805 30.1351 17.1542 29.7739C17.9387 28.6071 19.0248 27.7201 20.1597 27.7201V27.6991C15.3986 27.5462 12.3569 25.9636 10.9407 23.5201C7.86209 23.5553 5.18165 23.8603 3.65201 24.1139C3.60329 23.8393 3.56129 23.5629 3.52517 23.2849C5.03465 23.0362 7.59329 22.7414 10.535 22.6851C10.4409 22.4533 10.3594 22.2155 10.2905 21.9719C7.34129 21.8224 4.79609 21.9392 3.41345 22.0534C3.39665 21.7745 3.37397 21.4965 3.37061 21.2143C4.75577 21.1009 7.23209 20.9875 10.1057 21.121C10.0394 20.701 9.99653 20.2718 9.99653 19.8249C9.99653 18.3969 10.5005 16.8849 11.4245 15.6249C11.0045 14.1969 10.4165 11.1729 11.5925 10.0809C13.8605 10.0809 15.4565 11.1729 16.2125 11.8449C17.6397 11.2561 19.2357 10.9201 20.9997 10.9201C22.7637 10.9201 24.3597 11.2561 25.7037 11.8441C26.4597 11.1721 28.0557 10.0801 30.3237 10.0801C31.5837 11.2561 30.9117 14.2801 30.4917 15.6241C31.4157 16.8841 31.9197 18.3121 31.8357 19.8241C31.8357 20.2306 31.7979 20.6229 31.7433 21.0076C34.6825 20.8631 37.226 20.9791 38.6347 21.0933C38.633 21.3764 38.6069 21.6527 38.5918 21.9325C37.1882 21.8165 34.5808 21.6973 31.5702 21.8577C31.4955 22.1399 31.4048 22.4146 31.2973 22.6809C34.2759 22.7195 36.8959 23.0077 38.4776 23.2597C38.4415 23.5385 38.3994 23.8149 38.3507 24.0887C36.7447 23.8317 34.0071 23.531 30.8924 23.5159C29.4938 25.9334 26.5076 27.5101 21.8397 27.694V27.7201C24.0237 27.7201 26.0397 30.9961 26.0397 33.2641V37.8001C26.0397 38.4914 26.458 39.0853 27.0553 39.3423C34.7505 36.7954 40.3197 29.5378 40.3197 21.0001C40.3197 10.3472 31.6534 1.68005 20.9997 1.68005C10.346 1.68005 1.67969 10.3472 1.67969 21.0001C1.67969 29.5378 7.24889 36.7954 14.9441 39.3423Z" fill="white"/>
</svg>
