<svg width="95" height="109" viewBox="0 0 95 109" fill="none" xmlns="http://www.w3.org/2000/svg">
<g clip-path="url(#clip0_42_14)">
<path d="M79.6406 41.7043H94.9999V107.104C94.9999 108.151 94.151 109 93.1037 109H79.6406V41.7043Z" fill="white"/>
<path d="M92.5352 63.8834V82.0817C92.5352 83.1287 91.6863 83.9773 90.639 83.9773H65.6091C64.5618 83.9773 63.7129 83.1287 63.7129 82.0817V63.8834H92.5352Z" fill="white"/>
<path d="M1.89648 73.9304H21.9963V107.104C21.9963 108.151 21.1474 109 20.1001 109H1.89648V73.9304Z" fill="white"/>
<path d="M28.1588 53.4574C31.353 53.4574 33.9422 56.0459 33.9422 59.2391C33.9422 62.4324 31.353 65.0209 28.1588 65.0209H2.08594V53.4574H28.1588Z" fill="#6445FB"/>
<path d="M29.2012 85.4939V73.9304H2.0854V85.4939H29.2012Z" fill="white"/>
<path d="M29.3917 32.9844V44.5479H1.70703V34.88C1.70703 33.8331 2.556 32.9844 3.60324 32.9844H29.3917Z" fill="white"/>
<path d="M28.6865 32.9844C35.6517 32.9736 42.336 35.7295 47.2688 40.6455C52.2016 45.5617 54.9788 52.2353 54.9896 59.1986C55.0004 66.1617 52.2437 72.8441 47.3262 77.7754C42.4086 82.7068 35.733 85.4832 28.7677 85.494L28.7499 73.9049C32.6405 73.8988 36.3696 72.348 39.1164 69.5934C41.8633 66.8389 43.4032 63.1061 43.3971 59.2164C43.391 55.3269 41.8398 51.599 39.0844 48.8529C36.329 46.1069 32.5952 44.5674 28.7043 44.5735L28.6865 32.9844Z" fill="white"/>
<path fill-rule="evenodd" clip-rule="evenodd" d="M67.3156 9.47827H47.2158V31.9761C49.8842 33.4568 52.3441 35.4654 54.477 37.9447C59.4111 43.6804 62.19 51.4658 62.2027 59.5881C62.2152 67.7102 59.4602 75.5042 54.5441 81.2552C52.3961 83.7677 49.9126 85.8004 47.2158 87.2938V109H65.4194C66.4667 109 67.3156 108.151 67.3156 107.104V9.47827Z" fill="white"/>
<path d="M1.32715 23.6956H5.17645V27.9419H1.32715V23.6956ZM9.958 27.6765V9.09912H13.1436L15.4001 16.3974H15.7983V9.09912H19.2493V27.6765H16.0638L13.8073 20.3783H13.4091V27.6765H9.958ZM23.501 27.6765V9.09912H30.9342V12.5492H27.4565V16.3974H29.7661V20.3783H27.4565V24.253H30.9342V27.6765H23.501ZM37.181 27.6765V12.5492H34.6591V9.09912H43.685V12.5492H41.1631V27.6765H37.181Z" fill="#6445FB"/>
</g>
<defs>
<clipPath id="clip0_42_14">
<rect width="95" height="109" fill="white"/>
</clipPath>
</defs>
</svg>
