<svg width="102" height="102" viewBox="0 0 102 102" fill="none" xmlns="http://www.w3.org/2000/svg">
<g clip-path="url(#clip0_155_97)">
<path d="M11.2031 75.469V95.3673C11.2031 99.0334 14.1697 102 17.8359 102H84.1641C87.8302 102 90.7968 99.0334 90.7968 95.3673V75.469C90.7968 64.4772 81.8974 55.5706 70.8986 55.5706H69.1976C68.3055 55.5706 67.5905 56.2959 67.505 57.1837C66.6936 65.5857 59.6143 72.1528 50.9996 72.1528C42.3849 72.1528 35.3058 65.5857 34.495 57.1837C34.4095 56.2959 33.6944 55.5706 32.8021 55.5706H31.1012C20.1155 55.5706 11.2031 64.4772 11.2031 75.469Z" fill="#3A3A5D"/>
<path d="M50.9996 54.5347C64.1741 54.5347 74.8586 42.3255 74.8586 27.267C74.8586 12.2085 64.1741 0 50.9996 0C37.8251 0 27.1406 12.2091 27.1406 27.2677C27.1406 42.3262 37.8251 54.5347 50.9996 54.5347ZM50.9996 27.2677C57.2243 27.2677 62.4169 24.119 64.054 19.8386C66.5039 22.7908 68.0416 26.5354 68.0416 30.6765C68.0416 40.0896 60.4057 47.7185 50.9996 47.7185C41.5864 47.7185 33.9576 40.0896 33.9576 30.6765C33.9576 26.5354 44.7749 27.2677 50.9996 27.2677Z" fill="#3A3A5D"/>
</g>
<defs>
<clipPath id="clip0_155_97">
<rect width="102" height="102" fill="white"/>
</clipPath>
</defs>
</svg>
