<svg width="1094" height="347" viewBox="0 0 1094 347" fill="none" xmlns="http://www.w3.org/2000/svg">
<line x1="278" y1="65" x2="890" y2="65" stroke="white" stroke-width="2"/>
<g clip-path="url(#clip0_0_1)">
<path d="M259.446 132.119H309.482V339.305C309.482 342.622 306.717 345.31 303.305 345.31H259.446V132.119Z" fill="white"/>
<path d="M301.453 202.382V260.034C301.453 263.351 298.687 266.039 295.275 266.039H213.735C210.323 266.039 207.558 263.351 207.558 260.034V202.382H301.453Z" fill="white"/>
<path d="M6.17773 234.211H71.6571V339.305C71.6571 342.622 68.8916 345.31 65.4798 345.31H6.17773V234.211Z" fill="white"/>
<path d="M91.7328 169.352C102.138 169.352 110.574 177.553 110.574 187.669C110.574 197.785 102.138 205.985 91.7328 205.985H6.79492V169.352H91.7328Z" fill="white"/>
<path d="M95.1309 270.843V234.211H6.79546V270.843H95.1309Z" fill="white"/>
<path d="M95.7482 104.494V141.127H5.55957V110.499C5.55957 107.183 8.32527 104.494 11.7369 104.494H95.7482Z" fill="white"/>
<path d="M93.4541 104.494C116.145 104.46 137.92 113.19 153.99 128.764C170.059 144.338 179.107 165.48 179.142 187.54C179.177 209.599 170.197 230.769 154.177 246.391C138.157 262.014 116.41 270.809 93.7185 270.843L93.6604 234.129C106.335 234.11 118.483 229.197 127.432 220.471C136.38 211.744 141.397 199.919 141.377 187.597C141.357 175.275 136.304 163.464 127.327 154.765C118.351 146.066 106.187 141.189 93.5122 141.208L93.4541 104.494Z" fill="white"/>
<path fill-rule="evenodd" clip-rule="evenodd" d="M219.294 30.027H153.814V101.3C162.507 105.99 170.521 112.354 177.469 120.208C193.543 138.379 202.596 163.043 202.637 188.774C202.678 214.505 193.703 239.196 177.688 257.415C170.69 265.375 162.6 271.815 153.814 276.546V345.31H213.117C216.528 345.31 219.294 342.622 219.294 339.305V30.027Z" fill="white"/>
<path d="M346.547 344.109L372.8 133.92H428.396L454.65 344.109H411.409L408.629 305.375H392.259L390.097 344.109H346.547ZM394.73 260.334H406.467L403.378 193.974H398.127L394.73 260.334ZM498.084 344.109V133.92H535.148L561.401 216.495H566.034V133.92H606.187V344.109H569.123L542.87 261.535H538.237V344.109H498.084ZM678.96 344.109V172.956H649.624V133.92H754.638V172.956H725.296V344.109H678.96ZM848.873 347.112C838.989 347.112 829.933 344.81 821.693 340.206C813.458 335.402 806.867 329.096 801.925 321.289C797.193 313.282 794.821 304.373 794.821 294.565V183.465C794.821 173.656 797.193 164.848 801.925 157.041C806.867 149.034 813.458 142.729 821.693 138.124C829.933 133.32 838.989 130.918 848.873 130.918C858.756 130.918 867.818 133.32 876.053 138.124C884.293 142.729 890.78 149.034 895.511 157.041C900.453 164.848 902.924 173.656 902.924 183.465V294.565C902.924 304.373 900.453 313.282 895.511 321.289C890.78 329.096 884.293 335.402 876.053 340.206C867.818 344.81 858.756 347.112 848.873 347.112ZM848.873 307.476C851.14 307.476 852.993 306.776 854.432 305.375C855.878 303.773 856.594 301.971 856.594 299.97V177.76C856.594 175.558 855.878 173.756 854.432 172.355C852.993 170.753 851.14 169.953 848.873 169.953C846.612 169.953 844.654 170.753 843.004 172.355C841.565 173.756 840.842 175.558 840.842 177.76V299.97C840.842 301.971 841.565 303.773 843.004 305.375C844.654 306.776 846.612 307.476 848.873 307.476ZM949.68 344.109V133.92H1002.5L1016.39 227.304H1018.25L1031.53 133.92H1084.65V344.109H1044.5V250.725H1042.65L1030.6 344.109H1003.73L991.686 250.725H989.833V344.109H949.68Z" fill="white"/>
<path d="M4.32422 75.0675H16.8641V88.5196H4.32422V75.0675ZM32.4411 87.6788V28.8259H42.8189L50.1699 51.9467H51.4671V28.8259H62.7096V87.6788H52.332L44.981 64.558H43.6838V87.6788H32.4411ZM76.5603 87.6788V28.8259H100.775V39.7557H89.4462V51.9467H96.9701V64.558H89.4462V76.8331H100.775V87.6788H76.5603ZM121.126 87.6788V39.7557H112.91V28.8259H142.314V39.7557H134.098V87.6788H121.126Z" fill="white"/>
<path d="M1044.58 319.487H1078.56C1081.97 319.487 1084.73 322.176 1084.73 325.493V438.995C1084.73 442.311 1081.97 445 1078.56 445H1044.58V319.487Z" fill="white"/>
<path d="M259.446 132.119H309.482V339.305C309.482 342.622 306.717 345.31 303.305 345.31H259.446V132.119Z" fill="white"/>
<path d="M301.453 202.382V260.034C301.453 263.351 298.687 266.039 295.275 266.039H213.735C210.323 266.039 207.558 263.351 207.558 260.034V202.382H301.453Z" fill="white"/>
<path d="M6.17773 234.211H71.6571V339.305C71.6571 342.622 68.8916 345.31 65.4798 345.31H6.17773V234.211Z" fill="white"/>
<path d="M91.7328 169.352C102.138 169.352 110.574 177.553 110.574 187.669C110.574 197.785 102.138 205.985 91.7328 205.985H6.79492V169.352H91.7328Z" fill="#6445FB"/>
<path d="M95.1309 270.843V234.211H6.79546V270.843H95.1309Z" fill="white"/>
<path d="M95.7482 104.494V141.127H5.55957V110.499C5.55957 107.183 8.32527 104.494 11.7369 104.494H95.7482Z" fill="white"/>
<path d="M93.4541 104.494C116.145 104.46 137.92 113.19 153.99 128.764C170.059 144.338 179.107 165.48 179.142 187.54C179.177 209.599 170.197 230.769 154.177 246.391C138.157 262.014 116.41 270.809 93.7185 270.843L93.6604 234.129C106.335 234.11 118.483 229.197 127.432 220.471C136.38 211.744 141.397 199.919 141.377 187.597C141.357 175.275 136.304 163.464 127.327 154.765C118.351 146.066 106.187 141.189 93.5122 141.208L93.4541 104.494Z" fill="white"/>
<path fill-rule="evenodd" clip-rule="evenodd" d="M219.294 30.027H153.814V101.3C162.507 105.99 170.521 112.354 177.469 120.208C193.543 138.379 202.596 163.043 202.637 188.774C202.678 214.505 193.703 239.196 177.688 257.415C170.69 265.375 162.6 271.815 153.814 276.546V345.31H213.117C216.528 345.31 219.294 342.622 219.294 339.305V30.027Z" fill="white"/>
<path d="M409.127 305.339L409.094 304.875H408.629H392.259H391.786L391.76 305.347L389.624 343.609H347.113L373.242 134.42H427.955L454.083 343.609H411.874L409.127 305.339ZM394.23 260.308L394.204 260.834H394.73H406.467H406.991L406.966 260.311L403.878 193.951L403.855 193.474H403.378H398.127H397.652L397.628 193.949L394.23 260.308ZM537.737 261.535V343.609H498.584V134.42H534.782L560.925 216.646L561.036 216.995H561.401H566.034H566.534V216.495V134.42H605.687V343.609H569.489L543.346 261.384L543.235 261.035H542.87H538.237H537.737V261.535ZM724.796 172.956V343.609H679.46V172.956V172.456H678.96H650.124V134.42H754.138V172.456H725.296H724.796V172.956ZM821.937 138.561L821.944 138.556C830.106 133.798 839.074 131.418 848.873 131.418C858.671 131.418 867.646 133.798 875.801 138.556L875.809 138.561C883.973 143.123 890.395 149.366 895.081 157.296L895.085 157.302L895.089 157.309C899.977 165.031 902.424 173.745 902.424 183.465V294.565C902.424 304.285 899.977 313.102 895.086 321.026L895.084 321.03C890.398 328.761 883.975 335.008 875.805 339.772C867.65 344.331 858.673 346.612 848.873 346.612C839.072 346.612 830.102 344.331 821.94 339.772C813.777 335.008 807.248 328.76 802.352 321.028C797.67 313.103 795.321 304.286 795.321 294.565V183.465C795.321 173.742 797.671 165.025 802.352 157.302C807.249 149.369 813.777 143.123 821.937 138.561ZM854.781 305.733L854.793 305.722L854.803 305.71C856.326 304.023 857.094 302.104 857.094 299.97V177.76C857.094 175.444 856.337 173.511 854.793 172.008C853.254 170.303 851.267 169.453 848.873 169.453C846.48 169.453 844.397 170.306 842.656 171.996L842.655 171.997C841.11 173.501 840.342 175.437 840.342 177.76V299.97C840.342 302.105 841.118 304.023 842.632 305.709L842.655 305.734L842.681 305.756C844.425 307.237 846.499 307.976 848.873 307.976C851.252 307.976 853.236 307.237 854.781 305.733ZM1031.96 134.42H1084.15V343.609H1045V250.725V250.225H1044.5H1042.65H1042.21L1042.15 250.661L1030.16 343.609H1004.17L992.182 250.661L992.125 250.225H991.686H989.832H989.332V250.725V343.609H950.18V134.42H1002.06L1015.9 227.378L1015.96 227.804H1016.39H1018.25H1018.68L1018.74 227.375L1031.96 134.42Z" fill="white" stroke="black"/>
<path d="M4.32422 75.0675H16.8641V88.5196H4.32422V75.0675ZM32.4411 87.6788V28.8259H42.8189L50.1699 51.9467H51.4671V28.8259H62.7096V87.6788H52.332L44.981 64.558H43.6838V87.6788H32.4411ZM76.5603 87.6788V28.8259H100.775V39.7557H89.4462V51.9467H96.9701V64.558H89.4462V76.8331H100.775V87.6788H76.5603ZM121.126 87.6788V39.7557H112.91V28.8259H142.314V39.7557H134.098V87.6788H121.126Z" fill="#6445FB"/>
<path d="M1044.58 319.487H1078.56C1081.97 319.487 1084.73 322.176 1084.73 325.493V438.995C1084.73 442.311 1081.97 445 1078.56 445H1044.58V319.487Z" fill="white"/>
</g>
<defs>
<clipPath id="clip0_0_1">
<rect width="1094" height="347" fill="white"/>
</clipPath>
</defs>
</svg>
