<svg width="142" height="42" viewBox="0 0 142 42" fill="none" xmlns="http://www.w3.org/2000/svg">
<path d="M34 13H40V41.1831C40 41.6343 39.6684 42 39.2593 42H34V13Z" fill="white"/>
<path d="M39 22V30.1509C39 30.6199 38.6466 31 38.2105 31H27.7895C27.3534 31 27 30.6199 27 30.1509V22H39Z" fill="white"/>
<path d="M1 27H9V41.1892C9 41.637 8.66211 42 8.24528 42H1V27Z" fill="white"/>
<path d="M11.6399 19C12.9434 19 14 19.8954 14 21C14 22.1046 12.9434 23 11.6399 23H1V19H11.6399Z" fill="white"/>
<path d="M12 32V27H1V32H12Z" fill="white"/>
<path d="M12 10V15H1V10.8197C1 10.367 1.33732 10 1.75342 10H12Z" fill="white"/>
<path d="M12 10C14.9128 9.99549 17.7082 11.1501 19.7711 13.2098C21.834 15.2695 22.9955 18.0656 23 20.983C23.0045 23.9004 21.8516 26.7001 19.7952 28.7662C17.7386 30.8323 14.9469 31.9955 12.0339 32L12.0265 27.1445C13.6536 27.142 15.2131 26.4922 16.3618 25.3381C17.5105 24.184 18.1545 22.6201 18.152 20.9905C18.1495 19.3609 17.5007 17.799 16.3484 16.6485C15.1961 15.4979 13.6346 14.853 12.0075 14.8555L12 10Z" fill="white"/>
<path fill-rule="evenodd" clip-rule="evenodd" d="M29 0H20V9.49448C21.1948 10.1194 22.2963 10.967 23.2513 12.0134C25.4606 14.4339 26.7049 17.7195 26.7106 21.1473C26.7162 24.575 25.4826 27.8642 23.2813 30.2912C22.3195 31.3515 21.2075 32.2094 20 32.8396V42H28.1509C28.6199 42 29 41.6418 29 41.2V0Z" fill="white"/>
<path d="M45 41.5972L48.4502 13.4028H55.7564L59.2066 41.5972H53.5239L53.1586 36.4014H51.0073L50.7232 41.5972H45ZM51.3321 30.3597H52.8745L52.4686 21.4583H51.7786L51.3321 30.3597ZM64.9146 41.5972V13.4028H69.7854L73.2356 24.4792H73.8444V13.4028H79.1212V41.5972H74.2503L70.8002 30.5208H70.1913V41.5972H64.9146ZM88.6848 41.5972V18.6389H84.8295V13.4028H98.6302V18.6389H94.7741V41.5972H88.6848ZM111.014 42C109.715 42 108.525 41.6912 107.442 41.0736C106.36 40.4292 105.494 39.5833 104.845 38.5361C104.223 37.4621 103.911 36.2671 103.911 34.9514V20.0486C103.911 18.7329 104.223 17.5514 104.845 16.5042C105.494 15.4301 106.36 14.5843 107.442 13.9667C108.525 13.3222 109.715 13 111.014 13C112.313 13 113.504 13.3222 114.586 13.9667C115.669 14.5843 116.522 15.4301 117.143 16.5042C117.793 17.5514 118.118 18.7329 118.118 20.0486V34.9514C118.118 36.2671 117.793 37.4621 117.143 38.5361C116.522 39.5833 115.669 40.4292 114.586 41.0736C113.504 41.6912 112.313 42 111.014 42ZM111.014 36.6833C111.312 36.6833 111.556 36.5893 111.745 36.4014C111.935 36.1865 112.029 35.9449 112.029 35.6764V19.2833C112.029 18.9879 111.935 18.7463 111.745 18.5583C111.556 18.3435 111.312 18.2361 111.014 18.2361C110.717 18.2361 110.46 18.3435 110.243 18.5583C110.054 18.7463 109.959 18.9879 109.959 19.2833V35.6764C109.959 35.9449 110.054 36.1865 110.243 36.4014C110.46 36.5893 110.717 36.6833 111.014 36.6833ZM124.262 41.5972V13.4028H131.203L133.03 25.9292H133.273L135.018 13.4028H142V41.5972H136.723V29.0708H136.48L134.897 41.5972H131.365L129.782 29.0708H129.539V41.5972H124.262Z" fill="white"/>
<path d="M0 6.19718H1.72664V8H0V6.19718ZM3.87145 7.88732V0H5.30039L6.31256 3.09859H6.49117V0H8.03916V7.88732H6.61025L5.59809 4.78873H5.41947V7.88732H3.87145ZM9.94629 7.88732V0H13.2805V1.46479H11.7206V3.09859H12.7565V4.78873H11.7206V6.4338H13.2805V7.88732H9.94629ZM16.0826 7.88732V1.46479H14.9513V0H19V1.46479H17.8688V7.88732H16.0826Z" fill="white"/>
<path d="M34 13H40V41.1831C40 41.6343 39.6684 42 39.2593 42H34V13Z" fill="white"/>
<path d="M39 22V30.1509C39 30.6199 38.6466 31 38.2105 31H27.7895C27.3534 31 27 30.6199 27 30.1509V22H39Z" fill="white"/>
<path d="M1 27H9V41.1892C9 41.637 8.66211 42 8.24528 42H1V27Z" fill="white"/>
<path d="M11.6399 19C12.9434 19 14 19.8954 14 21C14 22.1046 12.9434 23 11.6399 23H1V19H11.6399Z" fill="#6445FB"/>
<path d="M12 32V27H1V32H12Z" fill="white"/>
<path d="M12 10V15H1V10.8197C1 10.367 1.33732 10 1.75342 10H12Z" fill="white"/>
<path d="M12 10C14.9128 9.99549 17.7082 11.1501 19.7711 13.2098C21.834 15.2695 22.9955 18.0656 23 20.983C23.0045 23.9004 21.8516 26.7001 19.7952 28.7662C17.7386 30.8323 14.9469 31.9955 12.0339 32L12.0265 27.1445C13.6536 27.142 15.2131 26.4922 16.3618 25.3381C17.5105 24.184 18.1545 22.6201 18.152 20.9905C18.1495 19.3609 17.5007 17.799 16.3484 16.6485C15.1961 15.4979 13.6346 14.853 12.0075 14.8555L12 10Z" fill="white"/>
<path fill-rule="evenodd" clip-rule="evenodd" d="M29 0H20V9.49448C21.1948 10.1194 22.2963 10.967 23.2513 12.0134C25.4606 14.4339 26.7049 17.7195 26.7106 21.1473C26.7162 24.575 25.4826 27.8642 23.2813 30.2912C22.3195 31.3515 21.2075 32.2094 20 32.8396V42H28.1509C28.6199 42 29 41.6418 29 41.2V0Z" fill="white"/>
<path d="M45 41.5972L48.4502 13.4028H55.7564L59.2066 41.5972H53.5239L53.1586 36.4014H51.0073L50.7232 41.5972H45ZM51.3321 30.3597H52.8745L52.4686 21.4583H51.7786L51.3321 30.3597ZM64.9146 41.5972V13.4028H69.7854L73.2356 24.4792H73.8444V13.4028H79.1212V41.5972H74.2503L70.8002 30.5208H70.1913V41.5972H64.9146ZM88.6848 41.5972V18.6389H84.8295V13.4028H98.6302V18.6389H94.7741V41.5972H88.6848ZM111.014 42C109.715 42 108.525 41.6912 107.442 41.0736C106.36 40.4292 105.494 39.5833 104.845 38.5361C104.223 37.4621 103.911 36.2671 103.911 34.9514V20.0486C103.911 18.7329 104.223 17.5514 104.845 16.5042C105.494 15.4301 106.36 14.5843 107.442 13.9667C108.525 13.3222 109.715 13 111.014 13C112.313 13 113.504 13.3222 114.586 13.9667C115.669 14.5843 116.522 15.4301 117.143 16.5042C117.793 17.5514 118.118 18.7329 118.118 20.0486V34.9514C118.118 36.2671 117.793 37.4621 117.143 38.5361C116.522 39.5833 115.669 40.4292 114.586 41.0736C113.504 41.6912 112.313 42 111.014 42ZM111.014 36.6833C111.312 36.6833 111.556 36.5893 111.745 36.4014C111.935 36.1865 112.029 35.9449 112.029 35.6764V19.2833C112.029 18.9879 111.935 18.7463 111.745 18.5583C111.556 18.3435 111.312 18.2361 111.014 18.2361C110.717 18.2361 110.46 18.3435 110.243 18.5583C110.054 18.7463 109.959 18.9879 109.959 19.2833V35.6764C109.959 35.9449 110.054 36.1865 110.243 36.4014C110.46 36.5893 110.717 36.6833 111.014 36.6833ZM124.262 41.5972V13.4028H131.203L133.03 25.9292H133.273L135.018 13.4028H142V41.5972H136.723V29.0708H136.48L134.897 41.5972H131.365L129.782 29.0708H129.539V41.5972H124.262Z" fill="white"/>
<path d="M0 6.19718H1.72664V8H0V6.19718ZM3.87145 7.88732V0H5.30039L6.31256 3.09859H6.49117V0H8.03916V7.88732H6.61025L5.59809 4.78873H5.41947V7.88732H3.87145ZM9.94629 7.88732V0H13.2805V1.46479H11.7206V3.09859H12.7565V4.78873H11.7206V6.4338H13.2805V7.88732H9.94629ZM16.0826 7.88732V1.46479H14.9513V0H19V1.46479H17.8688V7.88732H16.0826Z" fill="#6445FB"/>
</svg>
