<svg width="51" height="51" viewBox="0 0 51 51" fill="none" xmlns="http://www.w3.org/2000/svg">
<g clip-path="url(#clip0_173_99)">
<path fill-rule="evenodd" clip-rule="evenodd" d="M46.8415 21.6789L22.441 7.49436C19.1979 5.60909 15.3688 8.88371 16.7218 12.3853L20.0644 21.0355C20.7498 22.8089 21.8899 24.3203 23.3279 25.4509C21.9111 26.6257 20.799 28.1719 20.1466 29.9662L16.9642 38.7175C15.676 42.2602 19.5643 45.415 22.7716 43.4297L46.9041 28.4921C49.4615 26.9093 49.4272 23.1821 46.8415 21.6789ZM23.3676 19.7409C24.023 21.4371 25.3075 22.7709 26.9068 23.5048C27.5113 23.7822 28.1609 23.9738 28.8384 24.0669C28.9328 24.0799 29.0278 24.0909 29.1231 24.1001L34.2847 24.593C35.1062 24.6715 35.1172 25.8646 34.2973 25.9684L29.1463 26.6214C29.0511 26.6334 28.9564 26.6476 28.8623 26.6634C28.1867 26.7775 27.5408 26.9892 26.9416 27.2853C25.3561 28.0685 24.0967 29.4418 23.4726 31.1578L20.2902 39.9091C20.15 40.2949 20.5733 40.6383 20.9224 40.4222L45.055 25.4847C45.3334 25.3123 45.3296 24.9066 45.0481 24.743L20.6476 10.5584C20.2945 10.3531 19.8777 10.7096 20.025 11.0908L23.3676 19.7409Z" fill="#01011E"/>
</g>
<defs>
<clipPath id="clip0_173_99">
<rect width="35.8351" height="36.0619" fill="white" transform="translate(25.1826) rotate(44.292)"/>
</clipPath>
</defs>
</svg>
