<svg width="42" height="42" viewBox="0 0 42 42" fill="none" xmlns="http://www.w3.org/2000/svg">
<g clip-path="url(#clip0_68_22)">
<path d="M21 0C9.40275 0 0 9.40275 0 21C0 32.5972 9.40275 42 21 42C32.5972 42 42 32.5972 42 21C42 9.40275 32.5972 0 21 0ZM31.3145 14.3867L27.867 30.6267C27.6132 31.7782 26.9272 32.0583 25.97 31.5158L20.72 27.6483L18.1895 30.0878C17.9445 30.4028 17.5647 30.604 17.1395 30.604C17.136 30.604 17.1342 30.604 17.1307 30.604L17.5035 25.2595L27.2335 16.471C27.6535 16.0982 27.139 15.8865 26.5807 16.2593L14.56 23.8298L9.38 22.2127C8.26 21.8575 8.2285 21.0928 9.61625 20.5433L29.8568 12.7418C30.7983 12.3988 31.6172 12.9657 31.3127 14.3885L31.3145 14.3867Z" fill="white"/>
</g>
<defs>
<clipPath id="clip0_68_22">
<rect width="42" height="42" fill="white"/>
</clipPath>
</defs>
</svg>
