<svg width="46" height="46" viewBox="0 0 46 46" fill="none" xmlns="http://www.w3.org/2000/svg">
<path d="M22.9998 1.83997C11.3324 1.83997 1.83984 11.3325 1.83984 23C1.83984 34.6674 11.3324 44.16 22.9998 44.16C34.6682 44.16 44.1598 34.6674 44.1598 23C44.1598 11.3325 34.6682 1.83997 22.9998 1.83997ZM32.175 27.1722C34.233 28.9993 34.6608 29.6516 34.7308 29.7629C35.5836 31.1153 33.785 31.28 33.785 31.28H29.9946C29.9946 31.28 29.0718 31.2901 28.2834 30.7675C26.9982 29.9257 25.6522 28.2936 24.7064 28.577C23.9125 28.8144 23.9198 29.8871 23.9198 30.8043C23.9198 31.1328 23.6374 31.28 22.9998 31.28C22.3623 31.28 22.0973 31.28 21.8149 31.28C19.7384 31.28 17.4854 30.5808 15.2378 28.232C12.0583 24.9117 9.26976 18.2233 9.26976 18.2233C9.26976 18.2233 9.10508 17.8866 9.28448 17.6814C9.4878 17.4514 10.0407 17.4809 10.0407 17.4809L13.7161 17.48C13.7161 17.48 14.062 17.5453 14.3104 17.7201C14.5156 17.8636 14.6297 18.1378 14.6297 18.1378C14.6297 18.1378 15.247 20.1765 16.0336 21.4764C17.57 24.0138 18.2848 24.0782 18.8065 23.805C19.5682 23.4094 19.3198 20.7119 19.3198 20.7119C19.3198 20.7119 19.3539 19.5536 18.9564 19.0375C18.6501 18.6382 18.064 18.4257 17.8083 18.3926C17.6013 18.3659 17.9472 18.0034 18.3879 17.7964C18.9767 17.5342 19.778 17.4671 21.1598 17.48C22.2353 17.4901 22.5454 17.5545 22.9649 17.6511C24.2336 17.9436 23.9198 18.7155 23.9198 21.4258C23.9198 22.2943 23.8002 23.5152 24.4553 23.92C24.7377 24.0948 25.7056 24.3082 27.4278 21.5114C28.2457 20.1848 28.8961 17.9841 28.8961 17.9841C28.8961 17.9841 29.0304 17.7422 29.2393 17.6226C29.4527 17.5002 29.4463 17.503 29.7388 17.503C30.0314 17.503 32.9653 17.48 33.6093 17.48C34.2524 17.48 34.8559 17.4726 34.9598 17.8498C35.1089 18.3917 34.4851 20.2482 32.9046 22.263C30.3074 25.5695 30.0194 25.2604 32.175 27.1722Z" fill="white"/>
</svg>
