<svg width="56" height="56" viewBox="0 0 56 56" fill="none" xmlns="http://www.w3.org/2000/svg">
<path fill-rule="evenodd" clip-rule="evenodd" d="M42.8818 13.1318C38.9307 9.18066 33.6807 7 28.0889 7C16.5635 7 7.17774 16.3789 7.17774 27.9043C7.1709 31.5889 8.13477 35.1846 9.9668 38.3564L7 49.1914L18.0879 46.2793C21.1367 47.9473 24.582 48.8223 28.082 48.8291H28.0889C39.6143 48.8291 48.9932 39.4502 49 27.918C49 22.333 46.8262 17.083 42.8818 13.1318ZM28.0889 45.2949H28.082C24.9648 45.2949 21.9023 44.4541 19.2363 42.875L18.6006 42.499L12.0176 44.2217L13.7744 37.8096L13.3643 37.1533C11.6211 34.3848 10.7051 31.1855 10.7051 27.9043C10.7051 18.3271 18.5049 10.5342 28.0957 10.5342C32.7373 10.5342 37.0986 12.3457 40.3799 15.627C43.6611 18.915 45.4658 23.2764 45.4658 27.918C45.4658 37.502 37.666 45.2949 28.0889 45.2949ZM37.6182 32.2793C37.0986 32.0195 34.5283 30.7549 34.0498 30.584C33.5713 30.4062 33.2227 30.3242 32.874 30.8438C32.5254 31.3701 31.5273 32.5459 31.2197 32.8945C30.9189 33.2363 30.6113 33.2842 30.0918 33.0244C29.5654 32.7646 27.8838 32.2109 25.8877 30.4268C24.3359 29.0459 23.2832 27.3301 22.9824 26.8105C22.6748 26.2842 22.9482 26.0039 23.208 25.7441C23.4473 25.5117 23.7344 25.1357 23.9941 24.8281C24.2539 24.5273 24.3428 24.3086 24.5205 23.96C24.6914 23.6113 24.6025 23.3037 24.4727 23.0439C24.3428 22.7842 23.2969 20.207 22.8594 19.1611C22.4355 18.1426 22.0049 18.2861 21.6836 18.2656C21.3828 18.252 21.0342 18.252 20.6855 18.252C20.3369 18.252 19.7695 18.3818 19.291 18.9082C18.8125 19.4277 17.4658 20.6924 17.4658 23.2627C17.4658 25.833 19.3389 28.3213 19.5986 28.6699C19.8584 29.0117 23.2832 34.2891 28.5264 36.5518C29.7705 37.0918 30.7412 37.4131 31.5 37.6523C32.751 38.0488 33.8926 37.9941 34.7949 37.8643C35.7998 37.7139 37.8848 36.5996 38.3223 35.376C38.7529 34.1592 38.7529 33.1133 38.623 32.8945C38.4932 32.6758 38.1445 32.5459 37.6182 32.2793Z" fill="white"/>
</svg>
