<svg width="102" height="102" viewBox="0 0 102 102" fill="none" xmlns="http://www.w3.org/2000/svg">
<g clip-path="url(#clip0_155_86)">
<path d="M25.5 25.5V44.6252C25.5 48.1458 28.3509 51.0001 31.8749 51.0001H70.1252C73.6492 51.0001 76.5001 48.1458 76.5001 44.6252V25.5C76.5001 11.4181 65.0826 1.83233e-08 51 1.83233e-08C36.9174 -0.000528155 25.5 11.4175 25.5 25.5ZM70.1252 25.5C70.1252 36.0619 61.5588 44.6252 51 44.6252C40.4413 44.6252 31.8749 36.0619 31.8749 25.5C31.8749 25.5 51 25.6988 70.1252 25.5Z" fill="#3A3A5D"/>
<path d="M89.2505 70.1253C89.2505 63.084 83.5415 57.375 76.5002 57.375H70.67C69.7774 57.375 68.4565 57.7827 67.7188 58.2866L61.2055 62.7333C60.4684 63.2365 59.6657 64.3388 59.4131 65.1948L51.8164 90.9328C51.5637 91.7888 51.1414 91.7927 50.8725 90.9415L42.8895 65.6402C42.6207 64.7889 41.8029 63.6947 41.0622 63.1965L33.7516 58.2773C33.0107 57.779 31.6871 57.375 30.7945 57.375H25.4992C18.459 57.375 12.75 63.084 12.75 70.1253V95.6253C12.75 99.1493 15.6014 102 19.1249 102H25.4998H76.5004H82.8753C86.3992 102 89.2501 99.1487 89.2501 95.6253V70.1253H89.2505ZM41.2909 96.4332C39.8034 96.4332 38.5972 95.2271 38.5972 93.7395C38.5972 92.2522 39.8034 91.0459 41.2909 91.0459C42.7784 91.0459 43.9846 92.2522 43.9846 93.7395C43.9848 95.2278 42.7784 96.4332 41.2909 96.4332ZM41.2909 86.736C39.8034 86.736 38.5972 85.5298 38.5972 84.0423C38.5972 82.5549 39.8034 81.3486 41.2909 81.3486C42.7784 81.3486 43.9846 82.5549 43.9846 84.0423C43.9848 85.5305 42.7784 86.736 41.2909 86.736Z" fill="#3A3A5D"/>
</g>
<defs>
<clipPath id="clip0_155_86">
<rect width="102" height="102" fill="white"/>
</clipPath>
</defs>
</svg>
